{
  "accessors": [
    {
      "bufferView": 0,
      "componentType": 5126,
      "count": 543900,
      "max": [
        2.3563380241394,
        0.935703992843628,
        -3.24859404563904
      ],
      "min": [
        -0.650905013084412,
        -3.54285287857056,
        -5.27908182144165
      ],
      "normalized": false,
      "type": "VEC3"
    },
    {
      "bufferView": 1,
      "componentType": 5126,
      "count": 543900,
      "max": [
        0.99999725818634,
        0.999399781227112,
        0.999990224838257
      ],
      "min": [
        -0.999999761581421,
        -0.999757289886475,
        -0.998454630374908
      ],
      "normalized": false,
      "type": "VEC3"
    },
    {
      "bufferView": 2,
      "componentType": 5126,
      "count": 543900,
      "max": [
        0.999261021614075,
        0.999014019966125
      ],
      "min": [
        0.000742000003810972,
        0.000744998455047607
      ],
      "normalized": false,
      "type": "VEC2"
    },
    {
      "bufferView": 3,
      "componentType": 5125,
      "count": 543900,
      "max": [
        65535.0
      ],
      "min": [
        0.0
      ],
      "normalized": false,
      "type": "SCALAR"
    }
  ],
  "asset": {
    "generator": "Huawei RSDZ Library, version: 20210318-B049",
    "version": "2.0"
  },
  "bufferViews": [
    {
      "buffer": 0,
      "byteLength": 6526800,
      "byteOffset": 0,
      "target": 34962
    },
    {
      "buffer": 0,
      "byteLength": 6526800,
      "byteOffset": 6526800,
      "target": 34962
    },
    {
      "buffer": 0,
      "byteLength": 4351200,
      "byteOffset": 13053600,
      "target": 34962
    },
    {
      "buffer": 0,
      "byteLength": 2175600,
      "byteOffset": 17404800,
      "target": 34963
    },
    {
      "buffer": 0,
      "byteLength": 661696,
      "byteOffset": 19580400,
      "name": "ImageBufferView"
    }
  ],
  "buffers": [
    {
      "byteLength": 20242096,
      "uri": "out.bin"
    }
  ],
  "images": [
    {
      "bufferView": 4,
      "mimeType": "image/jpeg"
    }
  ],
  "materials": [
    {
      "name": "material",
      "pbrMetallicRoughness": {
        "baseColorTexture": {
          "index": 0
        },
        "metallicFactor": 0.0
      }
    }
  ],
  "meshes": [
    {
      "name": "defaultobject",
      "primitives": [
        {
          "attributes": {
            "NORMAL": 1,
            "POSITION": 0,
            "TEXCOORD_0": 2
          },
          "indices": 3,
          "material": 0,
          "mode": 4
        }
      ]
    }
  ],
  "nodes": [
    {
      "children": [
        1
      ],
      "name": "mesh_texture.obj"
    },
    {
      "mesh": 0,
      "name": "defaultobject"
    }
  ],
  "samplers": [
    {
      "magFilter": 9729,
      "minFilter": 9986,
      "wrapR": 10497,
      "wrapS": 10497,
      "wrapT": 10497
    }
  ],
  "scene": 0,
  "scenes": [
    {
      "nodes": [
        0
      ]
    }
  ],
  "textures": [
    {
      "sampler": 0,
      "source": 0
    }
  ]
}
